<?xml version="1.0" encoding="utf-8"?>
<svg viewBox="0 0 500 500" xmlns="http://www.w3.org/2000/svg">
  <path d="M 237.888 250 L 237.888 312.5 L 362.888 312.5 L 362.888 187.5 L 237.888 187.5 L 237.888 250 Z M 338.618 245 C 341.611 245.695 344.333 247.261 346.438 249.5 C 347.596 250.706 348.604 252.05 349.438 253.5 C 349.438 253.66 344.038 257.31 340.748 259.35 C 340.628 259.43 340.148 258.91 339.618 258.12 C 338.397 256.014 336.181 254.681 333.748 254.59 C 329.958 254.33 327.518 256.32 327.538 259.59 C 327.506 260.404 327.693 261.212 328.078 261.93 C 328.908 263.66 330.458 264.69 335.318 266.79 C 344.268 270.64 348.098 273.18 350.478 276.79 C 353.138 280.79 353.728 287.25 351.928 292.03 C 349.928 297.23 345.028 300.76 338.098 301.93 C 334.932 302.293 331.734 302.259 328.578 301.83 C 323.76 301.048 319.315 298.754 315.888 295.28 C 314.738 294.01 312.498 290.7 312.638 290.46 C 313.003 290.189 313.387 289.945 313.788 289.73 L 318.388 287.09 L 321.978 285.01 L 322.728 286.12 C 323.993 287.931 325.604 289.473 327.468 290.66 C 331.468 292.76 336.928 292.47 339.628 290.04 C 341.498 288.203 341.789 285.291 340.318 283.12 C 339.318 281.73 337.318 280.56 331.728 278.12 C 325.278 275.34 322.498 273.62 319.958 270.88 C 318.372 269.072 317.201 266.939 316.528 264.63 C 316.025 261.992 315.951 259.291 316.308 256.63 C 317.638 250.4 322.308 246.05 329.128 244.76 C 332.286 244.369 335.485 244.457 338.618 245.02 L 338.618 245 Z M 309.278 250.24 L 309.278 255.36 L 293.048 255.36 L 293.048 301.59 L 281.538 301.59 L 281.538 255.35 L 265.268 255.35 L 265.268 250.35 C 265.224 248.629 265.271 246.906 265.408 245.19 C 265.468 245.11 275.408 245.07 287.408 245.09 L 309.218 245.09 L 309.278 250.24 Z" style="fill: rgb(255, 255, 255);" transform="matrix(0.9999999999999999, 0, 0, 0.9999999999999999, 0, 0)"/>
</svg>