<?xml version="1.0" encoding="utf-8"?>
<svg viewBox="0 0 128 128" xmlns="http://www.w3.org/2000/svg">
  <path d="M 126.077 30.333 L 81.934 4.728 C 79.153 3.144 75.51 3.144 72.707 4.728 L 28.219 30.333 C 25.35 31.984 23.399 35.087 23.399 38.406 L 23.399 89.548 C 23.399 92.867 25.391 95.971 28.261 97.631 L 39.99 104.319 C 45.617 107.091 47.176 107.091 49.736 107.091 C 58.07 107.091 62.398 102.052 62.398 93.263 L 62.398 42.773 C 62.399 42.06 62.844 40.999 62.143 40.999 L 56.521 40.999 C 55.809 40.999 54.399 42.06 54.399 42.772 L 54.399 93.262 C 54.399 97.158 50.783 101.035 44.197 97.742 L 32.075 90.729 C 31.653 90.499 31.399 90.036 31.399 89.548 L 31.399 38.406 C 31.399 37.924 31.862 37.44 32.29 37.193 L 76.668 11.632 C 77.11 11.397 77.64 11.397 78.083 11.632 L 122.046 37.187 C 122.467 37.44 122.4 37.909 122.4 38.406 L 122.4 89.548 C 122.4 90.036 122.492 90.511 122.077 90.746 L 77.944 116.322 C 77.566 116.549 77.074 116.549 76.659 116.322 L 65.342 109.573 C 65.001 109.375 64.59 109.304 64.262 109.487 C 61.117 111.27 60.533 111.507 57.583 112.53 C 56.856 112.783 55.784 113.222 57.991 114.459 L 72.789 123.213 C 74.201 124.03 75.804 124.459 77.436 124.459 C 79.074 124.462 80.683 124.032 82.102 123.213 L 126.078 97.631 C 128.949 95.959 130.4 92.867 130.4 89.548 L 130.4 38.406 C 130.399 35.087 128.948 31.992 126.077 30.333 L 126.077 30.333 Z M 91.126 81.444 C 79.399 81.444 76.817 78.209 75.956 72.378 C 75.854 71.75 75.322 70.999 74.682 70.999 L 68.952 70.999 C 68.243 70.999 67.672 71.859 67.672 72.565 C 67.672 80.031 71.732 89.077 91.126 89.077 C 105.164 89.077 113.214 83.622 113.214 73.968 C 113.214 64.396 106.747 61.884 93.132 60.082 C 79.37 58.263 77.972 57.344 77.972 54.12 C 77.972 51.462 79.156 47.917 89.346 47.917 C 98.45 47.917 101.806 49.871 103.187 56.008 C 103.306 56.585 103.833 56.999 104.428 56.999 L 110.182 56.999 C 110.536 56.999 110.873 56.856 111.121 56.603 C 111.362 56.331 111.488 55.99 111.457 55.624 C 110.564 45.055 103.544 40.13 89.345 40.13 C 76.713 40.13 69.179 45.464 69.179 54.405 C 69.179 64.103 76.676 66.783 88.801 67.982 C 103.306 69.404 104.434 71.524 104.434 74.377 C 104.434 79.333 100.456 81.444 91.126 81.444 Z" style="fill: rgb(255, 255, 255);"/>
</svg>