<svg version="1.1" id="Layer_1" xmlns="http://www.w3.org/2000/svg" x="0" y="0" viewBox="0 0 128 128" style="enable-background:new 0 0 128 128" xml:space="preserve"><path d="M48 69h15.4c-2.6-9-5.3-17.3-7.8-25.8C53 51.7 50.5 60 48 69zm76.1-68H2.9C.7 1 1 1.5 1 3.6V125c0 2.1-.3 2 1.7 2h121.5c2 0 2.7.1 2.7-2V3.7c.1-2.2-.6-2.7-2.8-2.7zM77.3 96c-1.6 0-3.3-.1-4.9 0-1.2.1-1.6-.4-1.9-1.4-1.5-4.9-3.1-9.9-4.6-14.8-.3-1-.7-1.4-1.8-1.3-5.5.1-11 .1-16.6 0-1.2 0-1.7.3-2 1.4-1.4 4.9-2.9 9.8-4.4 14.7-.3 1.1-.8 1.4-1.9 1.4-3.3-.1-6.6 0-10.3 0 1-3 1.8-5.9 2.7-8.7l16.5-51.6c.4-1.2.9-1.6 2.1-1.5 3.9.1 7.8 0 11.7 0 .7 0 1.2 0 1.5.9C70 55.1 76.5 75.3 83 95.4v.6h-5.7zM98 96H86V51h12v45zm-6.3-51.1c-3.7 0-6.3-2.5-6.3-6.1 0-3.5 2.7-6.2 6.4-6.2s6.4 2.5 6.4 6.2c0 3.6-2.7 6.1-6.5 6.1z" style="fill:#fff"/></svg>