<svg version="1.1" id="Layer_1" xmlns="http://www.w3.org/2000/svg" x="0" y="0" viewBox="0 0 128 128" style="enable-background:new 0 0 128 128" xml:space="preserve"><path d="M50.2 41.6c-3.7-.9-7.4-.6-11.3 0v20c0 .3.5.9.8 1 4.2.6 8.5.6 12.4-1.3 4.1-2 6.2-6.2 5.7-11.1-.3-4.5-3-7.4-7.6-8.6zM127 64V3.3c0-2.1 0-2.3-2-2.3H3.5C1.5 1 1 1.2 1 3.2v121.5c0 2 .3 2 2.2 2H125c1.6 0 2-.4 2-2-.1-20.2 0-40.5 0-60.7zm-70.6 5.8c-5.6 2-11.4 2.1-17.4 1.6V94H28v-1.4c0-18.9-.1-37.8-.1-56.7 0-1.6.2-2.3 2-2.5 8.3-.9 16.6-1.8 24.9.1 8.9 2.1 14 8 14.4 16.1.5 10.1-3.9 17-12.8 20.2zm44.3 12.8c-.4 5.8-3.7 9.6-9 11.4-7.1 2.5-14.2 1.9-21.2-.9-1.1-.5-1.4-1-1-2.2.7-2.1 1.2-4.3 1.7-6.3 3 .9 5.8 1.9 8.7 2.5 2.1.4 4.3.1 6.4-.2 1.9-.3 3.2-1.6 3.5-3.6.3-2-.3-3.8-2.1-4.9-1.4-.9-3-1.5-4.5-2.2-2.4-1.2-5-2.1-7.3-3.5-8.8-5.7-6-16.4-.1-20.4 3.2-2.1 6.6-3.1 10.4-3.2 4.4-.2 8.6.6 12.8 2.6l-2.2 7.8c-1.7-.6-3.4-1.4-5.1-1.7-2-.4-4.2-.6-6.2-.4-2.7.2-4.4 2.1-4.4 4.5 0 1.4.5 2.6 1.7 3.2 1.7 1 3.4 1.8 5.2 2.6 1.9.9 3.9 1.6 5.7 2.6 4.8 2.5 7.4 6.6 7 12.3z" style="fill:#fff"/></svg>