<svg version="1.1" id="Layer_1" xmlns="http://www.w3.org/2000/svg" x="0" y="0" viewBox="0 0 128 128" style="enable-background:new 0 0 128 128" xml:space="preserve"><path d="M49.3 62h29.2C86.6 62 93 55.1 93 47V19.2C93 11.3 86.4 5.3 78.4 4c-5-.8-10.2-1.2-15.2-1.2s-9.6.4-13.8 1.2C37.1 6.2 35 10.8 35 19.2V30h29v4H23.8c-8.5 0-15.9 5.1-18.2 14.8-2.7 11.1-2.8 17.9 0 29.5 2 8.7 7 14.7 15.5 14.7H31V80c0-9.7 8.4-18 18.3-18zm-1.8-39.1c-3 0-5.5-2.5-5.5-5.5 0-3.1 2.5-5.6 5.5-5.6s5.5 2.5 5.5 5.6c0 3-2.5 5.5-5.5 5.5zm74.8 25.9c-2.1-8.4-6.1-14.8-14.6-14.8H97v13c0 10-8.8 18-18.5 18H49.3c-8 0-14.3 7.3-14.3 15.3v27.8c0 7.9 6.7 12.6 14.5 14.8 9.2 2.7 18 3.2 29.1 0 7.3-2.1 14.5-6.4 14.5-14.8V97H64v-4h43.7c8.5 0 11.6-5.8 14.6-14.7 3-9.1 2.9-17.8 0-29.5zm-42 55.6c3 0 5.5 2.5 5.5 5.5 0 3.1-2.5 5.6-5.5 5.6s-5.5-2.5-5.5-5.6c0-3 2.5-5.5 5.5-5.5z" style="fill:#fff"/></svg>