<svg version="1.1" id="Layer_1" xmlns="http://www.w3.org/2000/svg" x="0" y="0" viewBox="0 0 128 128" style="enable-background:new 0 0 128 128" xml:space="preserve"><path d="M64 25.6c-17.1 0-27.7 8.5-32 25.6 6.4-8.5 13.9-11.7 22.4-9.6 4.9 1.2 8.4 4.7 12.2 8.7C72.9 56.6 80.1 64 96 64c17.1 0 27.7-8.5 32-25.6-6.4 8.5-13.9 11.7-22.4 9.6-4.9-1.2-8.3-4.7-12.2-8.7C87.1 33 79.9 25.6 64 25.6zM32 64C14.9 64 4.3 72.5 0 89.6c6.4-8.5 13.9-11.7 22.4-9.6 4.9 1.2 8.4 4.7 12.2 8.7 6.3 6.4 13.5 13.7 29.4 13.7 17.1 0 27.7-8.5 32-25.6-6.4 8.5-13.9 11.7-22.4 9.6-4.9-1.2-8.3-4.7-12.2-8.7C55.1 71.4 47.9 64 32 64z" style="fill:#fff"/></svg>